<?xml version="1.0" encoding="UTF-8" standalone="no"?>
<!-- Created with Inkscape (http://www.inkscape.org/) -->

<svg
   xmlns:dc="http://purl.org/dc/elements/1.1/"
   xmlns:cc="http://creativecommons.org/ns#"
   xmlns:rdf="http://www.w3.org/1999/02/22-rdf-syntax-ns#"
   xmlns:svg="http://www.w3.org/2000/svg"
   xmlns="http://www.w3.org/2000/svg"
   xmlns:sodipodi="http://sodipodi.sourceforge.net/DTD/sodipodi-0.dtd"
   xmlns:inkscape="http://www.inkscape.org/namespaces/inkscape"
   width="170mm"
   height="140mm"
   viewBox="0 0 602.3622 496.063"
   id="svg2"
   version="1.1"
   inkscape:version="0.91 r13725"
   sodipodi:docname="drawing.svg"
   inkscape:export-filename="C:\Project\Inkspace Images\banana\banana.png"
   inkscape:export-xdpi="90"
   inkscape:export-ydpi="90">
  <defs
     id="defs4" />
  <sodipodi:namedview
     id="base"
     pagecolor="#ffffff"
     bordercolor="#666666"
     borderopacity="1.0"
     inkscape:pageopacity="0.0"
     inkscape:pageshadow="2"
     inkscape:zoom="0.7"
     inkscape:cx="675.57372"
     inkscape:cy="213.31311"
     inkscape:document-units="px"
     inkscape:current-layer="layer1"
     showgrid="false"
     inkscape:window-width="1600"
     inkscape:window-height="838"
     inkscape:window-x="-8"
     inkscape:window-y="-8"
     inkscape:window-maximized="1" />
  <metadata
     id="metadata7">
    <rdf:RDF>
      <cc:Work
         rdf:about="">
        <dc:format>image/svg+xml</dc:format>
        <dc:type
           rdf:resource="http://purl.org/dc/dcmitype/StillImage" />
        <dc:title></dc:title>
      </cc:Work>
    </rdf:RDF>
  </metadata>
  <g
     inkscape:label="Layer 1"
     inkscape:groupmode="layer"
     id="layer1"
     transform="translate(0,-556.29921)">
    <path
       style="fill:#ffd42a;fill-rule:evenodd;stroke:#000000;stroke-width:0;stroke-linecap:butt;stroke-linejoin:miter;stroke-miterlimit:4;stroke-dasharray:none;stroke-opacity:1"
       d="M 58.812926,910.61676 C 201.55752,888.08117 332.46043,857.62464 519.48516,650.29987 c 2.05457,-2.27758 9.97026,4.74618 9.97026,4.74618 C 434.61267,877.47593 219.20756,963.64592 50.997836,930.09681"
       id="path3336"
       inkscape:connector-curvature="0"
       sodipodi:nodetypes="cscc" />
    <path
       style="fill:none;fill-rule:evenodd;stroke:#000000;stroke-width:0;stroke-linecap:butt;stroke-linejoin:miter;stroke-miterlimit:4;stroke-dasharray:none;stroke-opacity:1"
       d="m 538.77536,659.23447 c 2.02031,9.2571 -0.79522,22.79445 -4.04061,34.34518 C 470.48682,922.24608 326.74828,1002.2964 96.328546,964.30054"
       id="path3338"
       inkscape:connector-curvature="0"
       sodipodi:nodetypes="csc" />
    <path
       style="fill:none;fill-rule:evenodd;stroke:#000000;stroke-width:0;stroke-linecap:butt;stroke-linejoin:miter;stroke-miterlimit:4;stroke-dasharray:none;stroke-opacity:1"
       d="m 58.952896,910.28275 c -14.47394,15.73092 -10.04498,8.76948 -6.06091,29.77412 10.60712,9.69324 35.0186,26.79293 48.487324,24.24367"
       id="path3340"
       inkscape:connector-curvature="0"
       sodipodi:nodetypes="ccc" />
    <path
       style="fill:none;fill-rule:evenodd;stroke:#000000;stroke-width:0;stroke-linecap:butt;stroke-linejoin:miter;stroke-miterlimit:4;stroke-dasharray:none;stroke-opacity:1"
       d="m 514.52119,654.94935 26.106,-49.36689 c 10.67451,-2.48176 22.02937,-6.26085 23.22866,9.32472 l -27.83497,52.11018"
       id="path3347"
       inkscape:connector-curvature="0"
       sodipodi:nodetypes="cccc" />
    <path
       style="fill:none;fill-rule:evenodd;stroke:#000000;stroke-width:0;stroke-linecap:butt;stroke-linejoin:miter;stroke-miterlimit:4;stroke-dasharray:none;stroke-opacity:1"
       d="m 524.73391,660.36521 c 12.22561,10.49031 12.65785,6.44003 12.65785,6.44003"
       id="path3349"
       inkscape:connector-curvature="0"
       sodipodi:nodetypes="cc" />
    <path
       style="fill:none;fill-rule:evenodd;stroke:#000000;stroke-width:0;stroke-linecap:butt;stroke-linejoin:miter;stroke-miterlimit:4;stroke-dasharray:none;stroke-opacity:1"
       d="m 543.07232,605.58246 c 6.52033,20.08018 13.04065,13.18184 19.56098,9.32472"
       id="path3351"
       inkscape:connector-curvature="0"
       sodipodi:nodetypes="cc" />
    <path
       style="fill:#ffdd55;stroke-width:0;stroke-miterlimit:4;stroke-dasharray:none"
       d="m 161.33393,970.77494 c -19.52832,-1.56814 -62.710844,-7.14376 -70.117174,-9.05333 -9.7252,-2.50746 -37.96915,-21.40578 -37.96915,-25.40554 0,-2.50146 1.82215,-2.86493 9.59645,-1.91428 23.16955,2.83322 85.622514,3.69164 104.769394,1.44007 100.38826,-11.80512 192.24525,-57.32189 263.77737,-130.70637 37.47764,-38.44815 64.4826,-76.89573 87.83209,-125.04859 5.3881,-11.11168 9.95756,-20.51335 10.15436,-20.8926 0.19678,-0.37925 2.36378,-0.0529 4.81548,0.72526 4.10479,1.30282 4.36319,2.31694 3.26428,12.81138 -2.3906,22.83029 -25.50988,87.68903 -44.39074,124.53365 -48.55018,94.74221 -122.96818,151.09266 -222.79802,168.70608 -23.58595,4.16139 -83.84508,6.81896 -108.93434,4.80427 z"
       id="path3353"
       inkscape:connector-curvature="0" />
    <path
       style="fill:#ffdd55;stroke-width:0;stroke-miterlimit:4;stroke-dasharray:none"
       d="m 94.663856,934.77979 c -1.11117,-0.4654 -9.07075,-1.44589 -17.68795,-2.17888 l -15.66766,-1.33269 4.14423,-5.26856 c 2.28552,-2.90554 3.87584,-7.49698 3.54582,-10.23712 -0.58941,-4.89395 -0.0752,-5.06739 34.214114,-11.54108 79.36953,-14.98462 135.41213,-33.91983 191.46165,-64.68948 63.13585,-34.65985 111.84454,-72.93187 181.22628,-142.39543 38.44107,-38.48641 46.37913,-45.54458 49.03676,-43.60128 2.77887,2.03196 1.47828,5.69009 -10.51938,29.58742 -22.92388,45.66053 -48.46771,81.95996 -82.28523,116.93265 -42.48633,43.93762 -83.41367,73.07615 -136.44827,97.14538 -36.79331,16.69827 -70.25615,26.96639 -109.09648,33.4764 -17.64488,2.95744 -87.241854,6.06364 -91.923884,4.10267 z"
       id="path3355"
       inkscape:connector-curvature="0" />
    <path
       style="fill:#ffcc00;stroke:#ffcc00;stroke-width:0;stroke-miterlimit:4;stroke-dasharray:none"
       d="m 123.21629,965.97399 c -15.40885,-2.14367 -31.011894,-4.88625 -34.673414,-6.09466 -6.0971,-2.01222 -35.29527,-21.17552 -35.29527,-23.16492 0,-0.47089 23.41028,-0.32533 52.022854,0.32345 57.01206,1.29274 76.90799,-0.50889 116.67262,-10.56502 58.03864,-14.67748 115.5938,-42.62761 163.64471,-79.46969 16.66707,-12.77915 57.32531,-52.49798 73.14196,-71.45203 19.30914,-23.13932 44.4302,-62.0632 58.14927,-90.09952 10.02592,-20.48902 12.78883,-24.61407 16.16244,-24.1306 3.42068,0.49021 3.97674,1.8711 3.48904,8.66437 -1.56666,21.82195 -20.56929,77.37027 -40.81244,119.3026 -29.55666,61.22455 -74.14528,110.96287 -126.29271,140.87863 -27.86518,15.98563 -62.65277,28.24149 -98.99495,34.87645 -29.38732,5.36524 -111.60256,5.88513 -147.21411,0.93094 z"
       id="path3357"
       inkscape:connector-curvature="0" />
    <path
       style="fill:#502d16;stroke-width:0;stroke-miterlimit:4;stroke-dasharray:none"
       d="m 525.8834,659.42618 -9.06139,-5.79959 12.44797,-23.64741 c 10.16363,-19.3079 12.78587,-22.77698 14.28939,-18.90413 2.42099,6.23613 8.85198,11.19827 12.06186,9.3069 4.30032,-2.53389 2.75011,1.44121 -9.18631,23.55595 l -11.49013,21.28788 -9.06139,-5.7996 z"
       id="path3359"
       inkscape:connector-curvature="0" />
    <path
       style="fill:#28170b;stroke-width:0;stroke-miterlimit:4;stroke-dasharray:none"
       d="m 544.87633,619.48576 c -8.76082,-7.72924 -5.77,-14.05448 6.07688,-12.85187 7.87501,0.79942 10.98849,3.09955 10.98849,8.11782 0,8.19505 -9.99855,10.96873 -17.06537,4.73405 z"
       id="path3361"
       inkscape:connector-curvature="0" />
    <path
       style="fill:#28170b;fill-rule:evenodd;stroke:#000000;stroke-width:0;stroke-linecap:butt;stroke-linejoin:miter;stroke-miterlimit:4;stroke-dasharray:none;stroke-opacity:1"
       d="m 66.679616,919.7352 c 0.93007,7.69721 -3.65406,16.07269 -4.72387,24.9143 -0.42426,3.5063 -10.51318,-1.59283 -13.69269,-11.1791 -3.17953,-9.5863 -2.2041,-20.12369 2.17865,-23.53592 4.38276,-3.41222 14.85364,-1.65531 16.23791,9.80072 z"
       id="path3342"
       inkscape:connector-curvature="0"
       sodipodi:nodetypes="sssss" />
  </g>
</svg>
